<?xml version="1.0" standalone="no"?>
<!DOCTYPE svg PUBLIC "-//W3C//DTD SVG 20010904//EN"
 "http://www.w3.org/TR/2001/REC-SVG-20010904/DTD/svg10.dtd">
<svg version="1.0" xmlns="http://www.w3.org/2000/svg"
 width="423.000000pt" height="600.000000pt" viewBox="0 0 423.000000 600.000000"
 preserveAspectRatio="xMidYMid meet">
<metadata>
Created by potrace 1.10, written by Peter Selinger 2001-2011
</metadata>
<g transform="translate(0.000000,600.000000) scale(0.100000,-0.100000)"
fill="#000000" stroke="none">
<path d="M131 5816 c-8 -9 -11 -784 -11 -2828 0 -2553 2 -2816 16 -2822 20 -8
4008 -8 4028 0 14 6 16 269 16 2824 0 2338 -2 2819 -13 2829 -10 8 -567 11
-2019 11 -1660 0 -2008 -2 -2017 -14z m3994 -2823 l0 -2778 -1972 -3 c-1575
-2 -1973 0 -1973 10 0 11 0 5532 0 5548 0 3 888 4 1972 3 l1973 -3 0 -2777z"/>
<path d="M527 5442 c-9 -2 -17 -9 -17 -15 -2 -550 1 -4861 4 -4865 2 -4 740
-7 1640 -7 l1636 0 0 2440 0 2440 -1623 5 c-893 3 -1631 4 -1640 2z m3184
-2446 c0 -1297 -2 -2360 -4 -2362 -2 -2 -703 -4 -1558 -4 l-1554 -1 -3 2363
c-1 1404 2 2364 7 2367 5 3 707 4 1560 1 l1552 -5 0 -2359z"/>
<path d="M993 5124 c-38 -43 -27 -123 14 -110 26 8 47 -16 38 -44 -7 -21 -39
-28 -50 -10 -9 14 -45 12 -45 -2 0 -24 53 -59 80 -53 35 8 81 60 73 82 -9 26
-54 73 -70 73 -7 0 -13 7 -13 15 0 11 11 15 40 15 44 0 52 16 22 43 -27 24
-64 20 -89 -9z"/>
<path d="M812 5132 c-7 -5 -20 -21 -27 -36 -12 -23 -12 -28 1 -33 8 -3 23 2
34 12 23 21 54 16 58 -10 2 -14 -15 -38 -53 -74 -75 -73 -73 -81 21 -81 66 0
75 2 72 18 -2 10 -12 17 -25 17 -12 0 -24 3 -28 7 -6 6 28 64 46 78 25 20 12
100 -16 100 -7 0 -25 2 -41 5 -16 3 -35 2 -42 -3z"/>
<path d="M1675 4404 c-16 -3 -43 -10 -60 -16 -49 -18 -119 -48 -138 -59 -10
-5 -37 -20 -60 -32 -37 -19 -90 -59 -181 -137 -54 -47 -165 -165 -216 -230
-28 -36 -68 -85 -88 -110 -20 -24 -60 -76 -89 -115 -29 -38 -57 -75 -63 -82
-5 -7 -10 -15 -10 -19 0 -4 -13 -28 -28 -53 -16 -25 -41 -77 -56 -114 l-27
-69 19 -66 c11 -37 23 -86 27 -109 4 -24 15 -60 25 -80 22 -45 95 -118 131
-132 17 -6 37 -31 60 -76 19 -37 40 -71 46 -77 7 -6 13 -15 13 -21 0 -13 79
-84 103 -92 9 -4 17 -11 17 -16 0 -5 11 -9 24 -9 13 0 29 -7 36 -15 8 -10 30
-15 61 -15 31 0 51 -5 56 -14 4 -8 38 -28 74 -44 60 -27 70 -29 107 -19 36 10
47 8 94 -15 90 -44 111 -51 178 -57 l65 -6 -1 -113 c-1 -110 -2 -114 -33 -158
-26 -38 -32 -57 -37 -122 -5 -69 -25 -150 -44 -177 -4 -5 -10 -23 -14 -40 -4
-16 -13 -33 -19 -37 -6 -4 -11 -19 -12 -35 0 -34 -28 -43 -55 -18 -10 9 -34
18 -52 18 -32 2 -33 1 -38 -43 -5 -45 -5 -45 -50 -50 -49 -5 -77 -22 -101 -60
-13 -20 -26 -25 -65 -27 -27 -2 -62 -5 -79 -7 -16 -2 -35 -5 -41 -5 -7 -1 -22
-9 -34 -19 -19 -16 -21 -22 -11 -40 12 -23 45 -30 56 -12 4 6 15 8 25 5 11 -3
30 0 42 6 17 9 106 14 322 16 179 2 313 7 332 13 28 10 36 8 53 -9 21 -21 49
-19 64 6 6 9 20 11 46 7 22 -3 41 -2 45 4 7 11 135 4 151 -9 6 -4 29 -4 50 1
24 5 93 5 170 0 72 -5 228 -11 349 -14 136 -4 223 -10 232 -17 7 -6 23 -9 36
-7 19 2 24 10 26 40 3 36 2 37 -35 43 -21 3 -48 10 -61 16 -13 5 -34 9 -48 9
-19 0 -28 7 -36 30 -7 20 -19 32 -36 36 -73 16 -123 38 -140 61 -14 19 -30 26
-66 30 -58 7 -64 19 -43 87 46 146 28 248 -83 466 -27 54 -35 116 -16 123 8 3
18 1 22 -4 10 -18 93 -49 128 -49 18 0 47 5 65 11 25 9 38 8 65 -5 19 -9 42
-16 51 -16 21 0 118 41 126 53 4 5 22 6 40 3 83 -17 120 -18 153 -2 19 9 40
16 48 16 69 2 202 87 248 160 8 13 27 35 41 49 33 32 54 74 63 123 4 20 13 50
21 65 24 46 28 89 15 176 -14 86 -34 128 -94 195 -41 46 -96 134 -96 154 0 9
-7 21 -15 28 -8 7 -15 19 -15 27 0 18 -54 89 -93 122 -16 13 -65 49 -110 79
-97 64 -116 80 -128 107 -5 11 -18 34 -29 50 -11 17 -24 39 -29 50 -5 11 -21
37 -35 58 -14 21 -26 39 -26 41 0 19 -212 196 -235 196 -2 0 -23 13 -47 29
-24 16 -54 32 -68 35 -14 4 -38 13 -55 21 -16 7 -41 18 -55 24 -38 16 -111 33
-270 61 -43 8 -73 6 -130 -6 -91 -19 -157 -12 -210 21 -39 25 -146 39 -215 29z
m166 -100 c69 -22 91 -25 152 -20 194 18 254 18 285 2 17 -9 46 -16 65 -16 19
0 54 -7 77 -15 23 -8 55 -15 71 -15 16 0 45 -10 66 -21 21 -12 57 -32 80 -45
23 -13 49 -24 57 -24 9 0 16 -7 16 -15 0 -8 7 -15 16 -15 24 0 156 -140 184
-196 14 -27 28 -50 33 -52 4 -2 7 -8 7 -13 0 -18 57 -87 106 -129 27 -24 51
-46 54 -50 3 -4 14 -9 25 -12 12 -2 19 -10 17 -21 -2 -11 4 -17 15 -17 24 0
93 -66 129 -121 16 -24 31 -46 34 -49 5 -5 34 -48 55 -81 22 -36 78 -115 89
-124 21 -19 56 -74 56 -88 0 -7 4 -17 10 -23 5 -5 15 -36 21 -68 12 -66 -4
-198 -27 -217 -8 -6 -14 -20 -14 -30 0 -19 -12 -34 -119 -150 -53 -58 -115
-99 -149 -99 -10 0 -27 -7 -38 -15 -26 -20 -34 -19 -34 5 0 11 4 20 9 20 12 0
51 76 51 99 0 10 -7 24 -15 31 -19 16 -22 146 -2 153 10 3 10 11 0 39 -21 56
-16 93 15 125 40 41 64 82 58 99 -3 8 -19 14 -36 14 -18 0 -33 6 -36 15 -4 8
-11 15 -18 15 -16 0 -48 39 -71 85 -10 22 -20 42 -22 44 -5 8 -84 8 -88 1 -3
-4 -33 -8 -67 -8 -64 1 -112 17 -121 40 -3 10 -9 11 -26 1 -11 -7 -31 -13 -43
-13 -13 0 -36 -7 -51 -15 -18 -9 -52 -14 -89 -13 -52 1 -59 4 -55 20 4 14 -1
18 -24 18 -16 0 -40 6 -52 14 -12 8 -31 15 -42 17 -36 4 -120 -13 -137 -29
-16 -14 -20 -13 -36 1 -10 10 -26 17 -34 17 -9 0 -21 6 -27 14 -6 7 -29 16
-50 20 -22 3 -41 12 -44 18 -2 8 -23 13 -58 13 -51 0 -55 2 -70 33 -10 18 -19
28 -21 21 -6 -17 -38 -4 -38 16 0 8 7 15 15 15 8 0 15 4 15 8 0 17 -13 21 -31
9 -25 -16 -48 7 -56 56 -4 30 -3 37 11 37 9 0 16 5 16 11 0 7 -9 9 -24 5 -18
-4 -30 1 -48 19 -32 34 -52 33 -43 -2 3 -16 11 -29 16 -31 5 -2 9 -14 9 -26 0
-12 7 -31 15 -42 8 -10 15 -26 15 -35 0 -8 25 -42 55 -75 41 -45 56 -69 61
-100 18 -117 -32 -109 -148 23 -30 34 -35 62 -16 92 16 26 -6 78 -42 96 -32
16 -40 40 -31 86 5 24 13 35 31 39 31 7 36 26 11 40 -12 6 -28 24 -36 40 -16
31 -35 40 -35 16 0 -7 -9 -42 -20 -76 -30 -94 -25 -119 28 -149 13 -8 14 -13
4 -35 -10 -23 -17 -26 -62 -26 -41 0 -58 6 -100 36 -41 30 -56 35 -78 29 -15
-4 -48 -8 -74 -8 -39 0 -53 5 -73 27 -25 27 -27 27 -50 12 -27 -18 -85 -22
-85 -6 0 6 -5 10 -11 10 -7 0 -9 -10 -5 -25 6 -22 3 -25 -19 -25 -14 0 -25 -4
-25 -9 0 -5 -22 -24 -50 -42 -27 -19 -50 -38 -50 -42 0 -5 -12 -21 -26 -36
-54 -58 -76 -112 -77 -191 0 -97 10 -125 58 -167 65 -57 108 -88 117 -86 4 2
7 0 7 -5 -3 -18 2 -24 14 -14 7 6 21 6 35 1 19 -7 22 -16 22 -58 0 -57 7 -81
24 -81 14 0 86 -68 86 -81 0 -14 -26 -10 -40 6 -12 14 -15 14 -31 0 -14 -14
-19 -14 -26 -3 -11 19 -77 58 -97 58 -25 0 -118 95 -114 117 2 13 11 17 30 15
14 -2 29 1 32 7 8 13 -4 41 -18 41 -6 0 -23 8 -36 17 -14 10 -33 16 -42 15
-10 -2 -18 1 -18 6 0 5 -15 13 -33 16 -19 4 -48 22 -69 44 -33 33 -40 52 -67
161 -33 133 -36 152 -22 179 31 64 49 95 90 155 25 38 60 92 78 120 18 29 45
63 61 77 16 14 36 39 45 56 9 17 38 50 66 74 28 25 54 52 57 62 9 30 154 170
235 229 95 69 104 75 161 103 26 12 53 28 60 33 36 30 133 25 249 -13z m-542
-788 c6 -7 32 -19 56 -26 41 -12 64 -11 135 6 21 4 34 -3 68 -35 35 -34 46
-40 62 -31 10 5 44 10 75 10 44 0 57 -4 61 -17 9 -30 36 -76 71 -122 38 -50
39 -56 17 -65 -23 -9 -78 28 -159 106 -60 58 -70 65 -73 48 -3 -19 11 -39 78
-113 8 -10 29 -28 45 -41 l30 -24 -25 -10 c-31 -12 -86 -4 -101 14 -6 8 -16
14 -21 14 -13 0 -129 97 -148 124 -35 50 -43 54 -135 59 -99 6 -175 34 -175
65 0 39 113 70 139 38z m451 -11 c0 -8 -7 -15 -15 -15 -8 0 -15 7 -15 15 0 8
7 15 15 15 8 0 15 -7 15 -15z m-612 -75 c34 -32 98 -50 176 -50 l71 0 70 -73
c79 -82 173 -137 234 -137 45 0 77 -20 68 -44 -5 -12 -20 -16 -61 -16 -47 0
-58 -4 -85 -30 -29 -30 -32 -30 -98 -24 -37 4 -72 12 -78 19 -5 6 -27 24 -48
39 -32 24 -40 26 -54 14 -22 -18 -151 -13 -189 7 -16 8 -34 15 -41 15 -17 0
-93 71 -93 87 0 7 -6 22 -12 33 -23 37 26 85 63 62 27 -17 143 -30 190 -22 37
7 41 5 100 -51 33 -33 65 -59 70 -59 6 0 21 -13 34 -28 33 -39 96 -66 132 -57
l28 8 -32 13 c-17 7 -34 18 -38 24 -3 5 -14 10 -24 10 -10 0 -24 7 -31 15 -7
8 -21 15 -31 15 -11 0 -19 3 -19 8 0 17 -104 113 -137 127 -21 9 -67 15 -115
15 -58 0 -88 5 -109 17 -36 21 -36 29 -3 59 31 29 34 29 62 4z m993 -79 l22
-18 -27 -36 c-34 -45 -56 -52 -96 -32 -30 15 -39 49 -25 87 9 22 99 21 126 -1z
m127 -31 c20 0 22 -4 16 -22 -10 -34 -46 -68 -71 -68 -23 0 -53 34 -53 61 0
20 38 40 65 34 11 -3 30 -5 43 -5z m246 -24 l30 -23 -28 -18 c-47 -31 -179
-44 -211 -21 -17 13 -18 15 -2 30 26 26 99 55 142 55 28 1 49 -6 69 -23z m351
-36 c-7 -34 -7 -34 31 -19 21 7 34 7 51 -2 18 -10 29 -9 56 5 34 16 98 22 110
10 3 -3 0 -18 -6 -32 -9 -19 -9 -26 0 -29 23 -8 113 -85 113 -97 0 -17 -48
-60 -90 -80 -52 -25 -117 -32 -138 -14 -28 24 -97 42 -129 32 -15 -4 -98 -8
-183 -8 -140 -1 -158 1 -182 19 -30 22 -41 42 -32 56 3 5 65 9 138 9 l134 0
12 29 c6 16 19 32 28 35 9 4 30 14 47 23 50 27 8 28 -48 0 -71 -34 -166 -54
-265 -57 -67 -1 -83 1 -88 14 -8 22 13 46 42 46 13 0 27 6 31 13 22 34 67 46
163 41 82 -5 100 -3 130 14 19 11 45 20 58 21 21 1 23 -2 17 -29z m-890 -50
c6 -10 26 -12 119 -10 37 0 67 -5 82 -15 27 -17 77 -20 105 -4 17 9 26 4 57
-28 49 -50 98 -107 147 -167 22 -28 50 -61 63 -74 36 -40 24 -90 -26 -106 -18
-6 -25 -4 -29 12 -9 36 -67 41 -128 12 -62 -30 -99 -25 -107 15 -2 13 3 20 17
23 58 9 65 13 65 36 0 28 -20 47 -86 80 -56 28 -99 32 -154 13 -34 -12 -35
-14 -35 -62 l0 -50 -50 2 c-27 1 -67 5 -88 8 -32 6 -42 3 -63 -16 -15 -14 -24
-34 -24 -53 0 -26 -7 -35 -48 -59 -26 -15 -55 -33 -65 -40 -15 -10 -21 -9 -33
7 -26 37 -18 78 26 121 22 22 57 66 76 100 38 61 40 75 31 200 -2 28 0 30 43
35 25 3 54 11 65 18 25 14 32 15 40 2z m-933 -65 c51 -43 127 -66 243 -73 71
-4 98 -10 127 -28 49 -31 171 -35 187 -7 7 13 23 18 61 19 28 0 56 6 62 12 15
15 48 15 48 0 0 -18 -31 -48 -51 -48 -9 0 -25 -3 -34 -6 -14 -6 -12 -10 12
-30 l28 -22 -30 -31 c-16 -17 -39 -31 -50 -31 -11 0 -31 -7 -45 -15 -31 -17
-84 -19 -109 -3 -15 9 -26 8 -55 -6 -20 -9 -36 -21 -36 -25 0 -5 -10 -11 -22
-14 -12 -4 -19 -9 -16 -12 3 -3 30 0 60 8 49 13 150 13 188 1 28 -9 -41 -53
-84 -54 -22 0 -47 -7 -58 -17 -20 -18 -26 -41 -5 -25 19 15 165 21 177 7 36
-43 -173 -108 -236 -74 -24 13 -32 43 -14 54 17 10 11 25 -9 25 -34 0 -51 12
-51 35 0 20 -6 24 -37 27 -27 2 -39 8 -41 21 -5 26 26 57 57 57 14 0 40 9 56
20 18 12 47 20 71 20 24 0 47 6 54 14 6 8 29 16 51 18 22 2 38 8 37 13 -6 20
-127 5 -203 -26 -11 -4 -42 -10 -68 -14 -46 -6 -50 -5 -96 37 -27 24 -71 51
-102 62 -30 10 -69 27 -86 38 -29 17 -33 25 -33 64 0 24 3 44 6 44 3 0 24 -16
46 -35z m1912 -168 c44 -20 147 -23 175 -5 50 31 72 -36 22 -71 -36 -26 -110
-43 -153 -35 -40 7 -128 46 -128 56 0 11 -64 10 -76 -2 -5 -5 -45 -12 -89 -16
-76 -6 -81 -5 -101 17 -51 57 -40 67 76 71 148 6 235 1 274 -15z m-768 -25 c7
-4 17 -38 22 -76 6 -37 19 -77 28 -87 26 -29 73 -38 111 -22 18 7 44 13 59 13
l26 0 -6 -78 c-6 -75 1 -133 22 -197 6 -16 18 -55 28 -85 9 -30 22 -61 28 -69
13 -17 33 -51 41 -71 4 -8 12 -26 19 -40 21 -41 39 -135 33 -171 -13 -78 -29
-145 -38 -154 -5 -5 -9 -15 -9 -22 0 -27 -43 -73 -68 -73 -34 0 -86 -34 -100
-65 -8 -16 -23 -28 -42 -32 -22 -4 -35 -15 -44 -38 -11 -26 -21 -33 -52 -38
-21 -4 -43 -2 -48 3 -11 11 -2 48 18 75 13 17 18 18 35 8 28 -17 48 -16 55 3
11 29 6 60 -14 81 -17 18 -25 20 -52 12 -33 -9 -60 -37 -88 -93 -20 -42 -48
-43 -112 -7 -30 17 -60 31 -66 31 -6 0 -24 -14 -41 -31 -30 -30 -32 -30 -93
-21 -58 9 -63 8 -83 -14 -18 -19 -33 -24 -70 -24 -30 0 -55 -6 -66 -16 -11
-10 -38 -17 -71 -18 -45 -1 -56 2 -76 24 l-24 25 37 9 c33 8 40 6 55 -14 13
-18 23 -21 44 -16 28 7 35 33 11 42 -8 3 -23 21 -34 40 -20 33 -20 34 -1 34
10 0 27 -13 37 -30 9 -16 24 -30 31 -30 21 0 68 55 92 108 11 26 34 73 51 105
16 32 34 87 39 125 14 93 24 131 45 171 12 24 18 61 20 121 1 48 5 92 9 98 4
6 0 28 -9 48 -8 20 -15 51 -15 69 0 18 -7 49 -15 68 -8 20 -15 50 -15 67 0 26
6 33 35 46 31 12 35 19 35 49 0 40 -4 38 106 35 106 -3 124 7 124 65 0 31 5
47 18 54 21 13 24 13 38 3z m660 -77 c10 -8 29 -15 42 -15 12 0 22 -4 22 -8 0
-4 27 -14 60 -21 53 -12 69 -12 127 3 75 18 87 12 78 -38 -7 -37 -29 -63 -77
-87 -45 -23 -77 -24 -125 -4 -19 8 -45 15 -56 15 -11 0 -27 7 -36 15 -9 8 -25
23 -37 33 -32 29 -80 42 -155 42 -52 0 -69 3 -69 14 0 26 31 39 101 41 39 1
75 7 82 14 14 14 19 14 43 -4z m-64 -114 c39 -37 75 -58 146 -82 69 -24 178
-25 210 -3 47 33 70 -10 32 -59 -11 -14 -20 -31 -20 -39 0 -37 -58 -50 -108
-24 -15 8 -46 17 -67 21 -22 3 -49 10 -60 15 -11 4 -27 11 -35 14 -8 3 -24 12
-35 18 -42 27 -152 95 -187 117 -21 12 -38 27 -38 32 0 5 33 8 73 8 52 -1 77
-6 89 -18z m-167 -41 c12 -18 47 -42 85 -60 36 -17 72 -35 80 -40 8 -5 38 -20
65 -34 28 -13 59 -33 69 -44 17 -20 17 -21 -3 -31 -27 -15 -61 -14 -91 4 -14
8 -36 20 -50 27 -14 7 -39 23 -56 35 -31 23 -64 30 -64 15 0 -5 13 -21 30 -37
53 -51 -2 -66 -85 -23 -62 33 -103 128 -55 128 11 0 20 -4 20 -8 0 -8 23 -22
65 -41 5 -2 -3 8 -19 22 -16 15 -32 27 -36 27 -10 0 -30 47 -30 70 0 39 46 32
75 -10z m-892 -56 c46 -42 33 -59 -43 -59 -55 0 -65 3 -68 19 -5 23 36 65 63
65 11 1 33 -11 48 -25z m989 -914 c-26 -35 -27 -46 -6 -54 11 -4 22 1 31 14 8
11 23 20 34 20 14 0 19 -7 19 -30 0 -20 5 -30 15 -30 8 0 15 5 15 11 0 6 16 9
38 7 30 -2 38 -7 40 -27 l4 -24 -188 7 c-103 4 -190 9 -194 11 -3 2 -25 -1
-48 -7 -55 -14 -112 -3 -112 21 0 27 22 32 59 14 17 -9 34 -13 38 -10 3 4 7
27 8 52 0 24 4 47 8 51 10 10 55 -5 74 -25 27 -28 45 -28 75 0 31 29 88 50
102 38 6 -6 1 -21 -12 -39z m-442 22 c0 -13 -12 -22 -22 -16 -10 6 -1 24 13
24 5 0 9 -4 9 -8z m-284 -106 c-3 -11 -6 -24 -6 -28 0 -5 -9 -8 -20 -8 -22 0
-28 38 -9 57 18 18 41 3 35 -21z m-136 -32 c0 -31 -23 -28 -28 4 -2 15 2 22
12 22 11 0 16 -9 16 -26z m-438 -16 c-9 -9 -15 -9 -24 0 -9 9 -7 12 12 12 19
0 21 -3 12 -12z"/>
<path d="M2488 4163 c-4 -45 -27 -54 -57 -24 -25 25 -41 27 -41 6 0 -8 7 -15
15 -15 9 0 15 -9 15 -21 0 -18 4 -20 32 -14 48 11 69 36 62 73 -9 43 -22 40
-26 -5z"/>
<path d="M2566 4098 c-3 -13 -22 -34 -42 -47 -34 -24 -35 -25 -14 -33 11 -4
32 -20 45 -36 35 -42 85 -40 130 5 35 35 44 53 26 53 -6 0 -18 13 -27 29 -12
21 -30 33 -60 40 -55 14 -51 15 -58 -11z m81 -26 c21 -13 26 -58 8 -76 -9 -9
-20 -15 -23 -13 -54 24 -62 32 -62 58 0 15 6 30 13 32 19 8 51 8 64 -1z"/>
<path d="M1544 4025 c-12 -13 -24 -31 -27 -39 -4 -9 -10 -16 -16 -16 -5 0 -11
-9 -14 -20 -7 -29 25 -26 38 3 6 12 27 33 48 46 20 13 37 30 37 38 0 22 -44
14 -66 -12z"/>
<path d="M1605 3965 c-17 -40 -22 -45 -52 -45 -39 0 -46 -26 -10 -39 22 -9 29
-4 86 65 14 17 17 57 5 61 -6 2 -19 -17 -29 -42z"/>
<path d="M2722 3948 c-21 -21 -13 -28 33 -28 25 0 45 4 45 8 0 15 -24 32 -45
32 -12 0 -26 -5 -33 -12z"/>
<path d="M1460 3906 c0 -8 5 -18 10 -21 6 -3 10 3 10 14 0 12 -4 21 -10 21 -5
0 -10 -6 -10 -14z"/>
<path d="M2591 3910 c-10 -5 -8 -9 4 -14 23 -8 35 -8 35 3 0 13 -25 20 -39 11z"/>
<path d="M2670 3908 c0 -8 5 -19 12 -26 9 -9 8 -15 -7 -25 -13 -10 -15 -16 -6
-21 6 -4 18 -2 26 4 11 9 15 9 15 1 0 -6 7 -11 15 -11 19 0 19 14 1 30 -8 6
-16 21 -18 33 -3 24 -38 37 -38 15z"/>
<path d="M2813 3898 c7 -24 -26 -68 -49 -68 -13 0 -26 -25 -17 -34 16 -16 54
-5 63 19 5 14 14 25 20 25 16 0 24 49 10 65 -18 22 -33 18 -27 -7z"/>
<path d="M1620 3880 c0 -19 3 -21 12 -12 9 9 9 15 0 24 -9 9 -12 7 -12 -12z"/>
<path d="M2520 3845 c0 -9 9 -15 25 -15 28 0 31 -16 10 -44 -8 -11 -15 -37
-15 -57 0 -33 5 -41 50 -73 55 -40 70 -44 70 -20 0 9 21 35 46 59 26 25 44 51
42 60 -4 23 -22 20 -26 -5 -6 -39 -32 -14 -32 31 0 11 -9 21 -24 25 -14 3 -27
12 -30 20 -3 8 -19 14 -35 14 -16 0 -33 5 -36 10 -10 16 -45 12 -45 -5z m127
-67 c23 -22 28 -44 17 -85 -8 -29 -17 -29 -54 -1 -32 23 -38 54 -20 89 14 25
28 24 57 -3z"/>
<path d="M1860 3696 c0 -9 6 -16 13 -16 16 0 46 20 30 20 -6 0 -18 3 -27 6
-11 4 -16 1 -16 -10z"/>
<path d="M2950 3692 c-39 -18 -60 -39 -60 -60 0 -12 -5 -31 -12 -41 -9 -15 -6
-26 18 -62 26 -38 35 -44 69 -47 55 -4 94 29 102 84 5 37 2 44 -30 75 -42 40
-65 59 -69 58 -2 0 -10 -3 -18 -7z m48 -60 c11 -11 22 -35 25 -55 5 -30 2 -39
-15 -48 -22 -12 -69 -4 -80 14 -16 25 -8 76 14 91 29 20 34 20 56 -2z"/>
<path d="M2730 3646 c0 -22 3 -27 11 -19 8 8 8 16 0 30 -9 16 -10 14 -11 -11z"/>
<path d="M2570 3600 c0 -5 7 -10 15 -10 8 0 15 5 15 10 0 6 -7 10 -15 10 -8 0
-15 -4 -15 -10z"/>
<path d="M1911 3586 c-9 -10 -9 -16 -1 -21 17 -10 37 12 24 25 -8 8 -15 6 -23
-4z"/>
<path d="M1580 3546 c0 -9 7 -16 16 -16 9 0 14 5 12 12 -6 18 -28 21 -28 4z"/>
<path d="M2090 3534 c0 -17 22 -14 28 4 2 7 -3 12 -12 12 -9 0 -16 -7 -16 -16z"/>
<path d="M1620 3510 c0 -5 6 -10 14 -10 8 0 18 5 21 10 3 6 -3 10 -14 10 -12
0 -21 -4 -21 -10z"/>
<path d="M2040 3470 c0 -19 3 -21 12 -12 9 9 9 15 0 24 -9 9 -12 7 -12 -12z"/>
<path d="M2957 3434 c-9 -10 2 -24 19 -24 8 0 14 7 14 15 0 15 -21 21 -33 9z"/>
<path d="M3040 3178 c-14 -6 -38 -16 -55 -23 -51 -22 -98 -33 -160 -41 -69 -8
-83 -13 -64 -25 19 -12 156 -11 164 1 3 6 13 10 22 10 27 0 102 42 118 67 17
25 13 27 -25 11z"/>
<path d="M1916 2613 c-10 -11 -7 -91 5 -98 15 -10 49 25 49 50 0 23 -42 60
-54 48z"/>
<path d="M2060 2571 c0 -5 -8 -17 -17 -27 -9 -9 -17 -31 -17 -49 0 -18 8 -40
17 -49 9 -10 17 -22 17 -27 0 -11 60 -12 76 -1 17 11 25 80 10 95 -7 6 -16 25
-20 40 -5 22 -12 27 -36 27 -17 0 -30 -4 -30 -9z m58 -85 c3 -25 1 -27 -25
-24 -28 3 -40 25 -29 53 9 25 50 2 54 -29z"/>
<path d="M1912 2418 c-18 -18 -15 -25 18 -42 32 -16 35 -11 20 28 -11 29 -20
32 -38 14z"/>
<path d="M1907 2315 c6 -18 34 -16 41 3 2 7 -6 12 -22 12 -19 0 -24 -4 -19
-15z"/>
<path d="M1910 2230 c-9 -17 -8 -20 8 -20 11 0 27 -11 35 -24 15 -22 14 -25
-7 -45 -29 -27 -36 -27 -36 3 0 33 -10 57 -21 50 -18 -11 -9 -70 14 -92 35
-33 53 -27 77 23 21 44 21 45 3 85 -20 45 -55 54 -73 20z"/>
<path d="M2072 2019 c2 -6 8 -10 13 -10 5 0 11 4 13 10 2 6 -4 11 -13 11 -9 0
-15 -5 -13 -11z"/>
<path d="M1806 1919 c-19 -28 -15 -34 13 -17 29 18 45 0 31 -36 -8 -21 -15
-26 -30 -21 -28 9 -44 -3 -29 -21 19 -23 53 -16 88 20 29 30 32 38 24 63 -8
23 -16 29 -45 31 -28 2 -40 -2 -52 -19z"/>
<path d="M2233 1693 c-7 -2 -13 -9 -13 -15 0 -12 41 -6 41 7 1 12 -11 15 -28
8z"/>
<path d="M2073 1280 c-64 -10 -103 -114 -62 -161 21 -24 64 -49 85 -49 25 0
84 69 84 99 0 65 -54 120 -107 111z m47 -60 c11 -11 20 -33 20 -49 0 -22 -6
-31 -30 -41 -25 -10 -34 -10 -55 4 -33 21 -34 67 -2 89 30 21 43 21 67 -3z"/>
<path d="M2660 1270 c-13 -11 -26 -20 -30 -20 -4 0 -13 -18 -20 -40 -12 -37
-12 -44 6 -76 11 -19 36 -43 55 -53 33 -18 35 -18 70 2 53 30 88 104 59 122
-5 3 -10 15 -10 25 0 10 -10 22 -22 26 -12 3 -28 13 -36 20 -19 20 -45 17 -72
-6z m60 -40 c31 -17 42 -45 28 -74 -9 -21 -18 -26 -49 -26 -52 0 -68 46 -29
88 24 25 25 25 50 12z"/>
<path d="M1501 1257 c-9 -24 -7 -93 4 -144 7 -31 10 -33 51 -33 54 0 59 21 13
46 l-32 16 29 24 c22 17 25 23 12 24 -38 0 -31 46 8 56 13 3 24 12 24 20 0 10
-14 14 -50 14 -43 0 -52 -3 -59 -23z"/>
<path d="M1819 1273 c-8 -55 -4 -175 6 -183 15 -13 32 5 37 40 2 17 10 26 26
28 19 3 22 -1 22 -31 0 -41 7 -49 31 -37 15 9 18 23 17 95 -2 75 -4 85 -20 85
-11 0 -20 -11 -26 -32 -11 -43 -52 -54 -52 -15 0 36 -10 57 -26 57 -8 0 -14
-3 -15 -7z"/>
<path d="M2216 1272 c-7 -12 -10 -182 -3 -189 4 -3 13 0 22 7 11 9 13 23 9 51
-9 55 27 46 53 -13 15 -34 51 -55 59 -35 9 24 0 182 -11 182 -5 0 -11 -24 -13
-52 -4 -65 -22 -70 -47 -13 -18 40 -60 77 -69 62z"/>
<path d="M2427 1256 c-50 -46 -43 -120 16 -166 32 -25 51 -25 93 0 52 33 57
84 7 96 -31 8 -40 -2 -25 -27 15 -23 0 -32 -44 -27 -43 5 -56 49 -24 83 24 26
54 33 65 15 8 -14 42 -13 51 1 11 18 -37 49 -77 49 -24 0 -44 -8 -62 -24z"/>
<path d="M1639 1263 c-6 -37 -8 -132 -4 -150 7 -28 73 -53 86 -32 15 24 10 37
-21 48 -29 10 -30 12 -24 50 8 50 -2 91 -21 91 -8 0 -15 -3 -16 -7z"/>
</g>
</svg>
